<svg width="88" height="78" viewBox="0 0 88 78" fill="none" xmlns="http://www.w3.org/2000/svg"><path d="M.012 35.648s23.527-.822 34.884 6.458c0 0 3.16 5.779 9.11 5.41v-4.645s-2.075-.538-4.691-2.493C36.698 38.424 26.132 29.133 4.8 29.133c0 0-4.912 4.532-4.789 6.515" fill="#524FD5"/><path d="M87.999 35.648s-23.528-.822-34.884 6.458c0 0-3.16 5.779-9.11 5.41v-4.645s2.074-.538 4.69-2.493c2.618-1.954 13.184-11.245 34.514-11.245 0 0 4.888 4.532 4.79 6.515" fill="#524FD5"/><path d="M44.005 40.661S44.524 22.447 59.485.41l12.072 15.523s-15.282.822-27.552 24.73" fill="url(#a)"/><path d="M44.005 40.661S43.487 22.447 28.526.41L16.454 15.932c-.025 0 15.257.822 27.551 24.73" fill="url(#b)"/><path d="M12.266 67.54h-.081s-.36-.372-.836-.384l-2.158-5.628c-1.16-3.029-2.913-4.12-4.538-4.12-2.158 0-4.084 1.95-4.084 3.9 0 .15.011.313.034.464.198 1.172 1.23 2.147 2.147 2.147.453 0 .882-.232 1.16-.801l.035.012c-.313.742-.847 1.056-1.427 1.056-.8 0-1.66-.604-2.065-1.532.313 1.752 1.729 2.947 3.226 3.342.348.093.707.14 1.056.14 1.067 0 2.054-.465 2.587-1.486.186-.395.267-.79.267-1.16 0-1.23-.893-2.287-1.972-2.565a2.7 2.7 0 0 0-.604-.081c-1.068 0-2.1.684-2.495 1.694.058.023.105.07.105.127l-.012.047a.135.135 0 0 1-.128.116l-.046-.012a.14.14 0 0 1-.116-.139v-.035c.011-.07.081-.116.15-.116h.036c.382-1.09 1.45-1.857 2.599-1.857.197 0 .406.024.603.07 1.08.279 2.136 1.265 2.136 2.75 0 .256-.035.523-.105.813-.394 1.636-1.74 2.657-3.319 2.657a4 4 0 0 1-.87-.104C1.74 66.437.058 64.789.058 62.248c0-.465.058-.94.174-1.45.557-2.426 2.507-4.109 4.607-4.178h.128c2.587 0 4.177 2.471 5.013 4.653l2.135 5.57 2.97-7.694c.07-.174.094-.313.094-.43 0-.51-.558-.521-.592-.521l.011-.023h2.159v.023h-.024c-.162 0-.893.046-1.23.916zm4.702-3.737c0 .812.255 1.636.742 2.24.279-2.426 3.91-2.774 3.91-4.399 0-.035-.01-.081-.01-.116-.07-.684-1.103-.928-1.915-.928-1.741 0-2.727 1.648-2.727 3.203m2.727-3.435c1.357 0 2.332.464 2.332 1.346 0 1.392-1.555 1.799-2.715 2.553-.383.267-1.44 1.172-1.44 1.81 0 .07.012.14.035.197a2.44 2.44 0 0 0 1.764.731c.801 0 1.962-.417 2.112-1.3.012-.046.012-.092.012-.15 0-.047 0-.105-.012-.163l.07-.011.313.824c-.464.661-1.717 1.044-2.471 1.044-1.915 0-3.47-1.543-3.47-3.446s1.555-3.435 3.47-3.435m6.513 8.227c-1.474 0-2.947-.858-2.982-2.53v-7.113c0-.696-.639-.72-.708-.72h-.012v-.034h.128c.487 0 1.09-.058 1.288-.186v8.042c.058 1.508 1.184 2.472 2.588 2.472a3 3 0 0 0 .568-.047c0-.046.024-.081.07-.081s.07.035.07.07c0 .034-.024.07-.07.07-.023 0-.058-.024-.058-.047-.29.07-.592.104-.882.104m14.838 1.996c.36.917 1.032.94 1.102.94v.035h-2.39l-.012-.023c.035 0 .603-.012.603-.534 0-.116-.023-.255-.092-.418l-1.022-2.634c-.499 2.1-2.564 3.667-5.048 3.667-2.843 0-5.152-2.089-5.152-4.665 0-2.437 2.077-4.445 4.723-4.642l1.601-4.12c.337-.069.476-.127.673-.429h.093c1.056 2.75 3.865 10.061 4.92 12.823m-4.352-9.248-1.102-2.89-1.51 3.853c.906-.023 2.612.07 2.612-.894zm-2.739 1.322-.371.917h.011l-.139.337-.522 1.346-.29.766c-.07.174-.093.313-.093.429 0 .51.557.522.592.522v.023h-1.926v-.023h.011c.116 0 .731-.035 1.08-.916l1.3-3.366a4.38 4.38 0 0 0-3.75 4.34 4.39 4.39 0 0 0 2.53 3.992c.395.186.825.314 1.277.36a2 2 0 0 0 .464.046h.047c1.682-.035 3.04-1.439 3.04-3.18 0-1.67-1.253-3.04-2.855-3.167 0 .08-.07.15-.15.15a.154.154 0 0 1-.151-.15c0-.081.07-.151.15-.151.082 0 .151.07.151.15 1.695.07 3.04 1.51 3.04 3.261 0 1.115-.545 2.1-1.369 2.693a4.38 4.38 0 0 0 2.565-4.004c0-.371-.046-.742-.14-1.102l-.312-.824-1.173-3.04-.092-.267c-.175.452-.453.626-.848.72-.673.138-1.462.104-2.077.138m5.976 1.138c0 1.566.951 3.202 2.692 3.202.812 0 1.96-.417 2.112-1.3a.6.6 0 0 0 .023-.15c0-.047-.012-.105-.023-.163l.07-.011.313.824c-.453.661-1.706 1.044-2.472 1.044-1.915 0-3.47-1.543-3.47-3.446s1.555-3.435 3.47-3.435c.638 0 1.323.081 1.857.383.533-.569 1.032-1.219 1.032-1.59v-.023c-.011-.151-.197-.302-.452-.302-.116 0-.244.035-.383.093l-.012-.012a1 1 0 0 1 .464-.116c.43.012.778.267.778.894 0 .684-.464 1.183-1.044 1.59v.023l-.279.174v-.012c-.905.569-1.926.963-1.926 1.486a.5.5 0 0 0 .08.266l-.01.024a.37.37 0 0 1-.151-.302c0-.406.556-.917.812-1.114.07-.047.418-.371.824-.79-.406-.29-1.01-.44-1.59-.44-1.74 0-2.715 1.648-2.715 3.203m6.288.823c0 1.555 1.172 2.345 2.378 2.368h.024c.882 0 2.158-.557 2.158-1.52v-1.312c0-1.241-.905-1.891-2.123-1.903h-.059c-1.218 0-2.378.8-2.378 2.367m8.506 3.911a.08.08 0 0 1-.07-.046 3.8 3.8 0 0 1-.894.104c-1.369 0-2.738-.742-2.959-2.193-.011.023-.011.046-.023.058-.615.522-1.404.766-2.205.766-1.59-.012-3.052-1.068-3.052-2.6 0-1.555 1.486-2.61 3.099-2.61h.046c.766.023 1.532.278 2.112.777v-.476c0-1.23-1.01-1.694-2.03-1.694h-.117c-.73.035-2.042.418-2.042 1.323h-.07l-.162-.87c.43-.43 1.404-.685 2.39-.685h.07c1.3.012 2.611.476 2.646 1.567 0 1.369-.012 2.727-.012 4.096a2.59 2.59 0 0 0 2.588 2.495c.197 0 .406-.035.615-.081q0-.07.07-.07c.034 0 .07.023.07.07 0 .034-.036.07-.07.07m3.328-9.62c0-.696-.639-.72-.708-.72h-.012v-.023h.256c.429-.011.963-.07 1.148-.185v8.065c.058 1.508 1.184 2.472 2.611 2.472.186 0 .372-.012.569-.047v-.011c0-.035.023-.07.07-.07.034 0 .07.035.07.07 0 .034-.036.07-.07.07a.08.08 0 0 1-.07-.047c-.29.07-.58.104-.882.104-1.358 0-2.715-.742-2.947-2.17l-.035.023a3.47 3.47 0 0 1-2.193.778c-1.915 0-3.47-1.532-3.47-3.435s1.555-3.447 3.47-3.447a3.54 3.54 0 0 1 2.193.778zm0 3.934c0-1.195-.546-2.263-2.193-2.263-1.741 0-2.728 1.636-2.728 3.203 0 1.555.987 3.203 2.727 3.203 1.277 0 2.194-.766 2.194-1.927zm2.93.952c0 .812.255 1.636.742 2.24.279-2.426 3.911-2.774 3.911-4.399 0-.035-.012-.081-.012-.116-.07-.684-1.102-.928-1.914-.928-1.741 0-2.727 1.648-2.727 3.203m2.727-3.435c1.357 0 2.332.464 2.332 1.346 0 1.392-1.555 1.799-2.715 2.553-.383.267-1.44 1.172-1.44 1.81 0 .07.012.14.036.197.44.441 1.032.731 1.764.731.8 0 1.96-.417 2.112-1.3.011-.046.011-.092.011-.15 0-.047 0-.105-.011-.163l.07-.011.312.824c-.464.661-1.717 1.044-2.471 1.044-1.915 0-3.47-1.543-3.47-3.446s1.555-3.435 3.47-3.435m17.108 8.227c-1.474 0-2.948-.858-2.982-2.53v-3.18c-.07-1.554-1.23-2.308-2.414-2.308-1.126.011-2.182.65-2.182 2.24l-.011 3.492c0 .685.591.708.661.708h.012v.023h-2.02v-.035h.024c.116 0 .65-.034.65-.684v-3.435c-.07-1.555-1.242-2.31-2.437-2.31-1.114 0-2.182.65-2.182 2.252v3.481c0 .406.255.708.696.708h.023v.023H66.52v-.023h.012c.116 0 .708-.023.708-.661V61.11c0-.696-.638-.72-.708-.72h-.012v-.034c.592 0 1.172-.035 1.416-.186v1.114c.58-.65 1.427-.928 2.344-.94 1.056 0 2.1.441 2.623 1.323.209-.267.394-.452.452-.51.569-.546 1.393-.812 2.217-.812 1.462 0 2.924.835 2.959 2.53v3.179c.058 1.508 1.184 2.472 2.6 2.472.185 0 .37-.012.568-.047 0-.046.011-.081.07-.081.034 0 .07.035.07.07 0 .034-.036.07-.07.07a.08.08 0 0 1-.07-.047c-.29.07-.592.104-.882.104m-.926.813c-.244 0-.51-.07-.79-.198l-.162-.858.07-.024c.15.465.545.778.963.778.662 0 .882-.522 1.323-1.59 0-.197-2.32-5.79-2.774-6.881-.464-.987-1.322-1.509-2.262-1.509a2.96 2.96 0 0 0-1.59.487v-.011l.011.011c0 .035-.011.093-.07.093-.034 0-.069-.011-.069-.058 0-.046.035-.07.081-.081l.047.023a3.64 3.64 0 0 1 2.135-.72c.975 0 1.903.453 2.367 1.486l2.542 6.15 2.274-5.558c.023-.07.023-.14.023-.197 0-.372-.371-.383-.429-.383h-.012v-.035h1.683v.035h-.046c-.151 0-.662.046-.905.684l-2.994 7.276c-.279.673-.79 1.08-1.416 1.08" fill="#524FD5"/><defs><linearGradient id="a" x1="43.997" y1="20.53" x2="71.559" y2="20.53" gradientUnits="userSpaceOnUse"><stop stop-color="#fff"/><stop offset="1" stop-color="#524FD5"/></linearGradient><linearGradient id="b" x1="43.997" y1="20.53" x2="16.434" y2="20.53" gradientUnits="userSpaceOnUse"><stop stop-color="#fff"/><stop offset="1" stop-color="#524FD5"/></linearGradient></defs></svg>